HIERARCHY
ROOT Hips
{
	OFFSET 0.000000 0.000000 0.000000 
	CHANNELS 6 Xposition Yposition Zposition Zrotation Yrotation Xrotation
	JOINT LeftUpLeg
	{
		OFFSET 1.363060 -1.794630 0.839290 
		CHANNELS 3 Zrotation Yrotation Xrotation
		JOINT LeftLeg
		{
			OFFSET 2.448110 -6.726130 0.000000 
			CHANNELS 3 Zrotation Yrotation Xrotation
			JOINT LeftFoot
			{
				OFFSET 2.562200 -7.039590 0.000000 
				CHANNELS 3 Zrotation Yrotation Xrotation
				JOINT LeftToeBase
				{
					OFFSET 0.157640 -0.433110 2.322550 
					CHANNELS 3 Zrotation Yrotation Xrotation
					End Site
					{
						OFFSET 0.000000 0.000000 0.000000 
					}
				}
			}
		}
	}
	JOINT RightUpLeg
	{
		OFFSET -1.305520 -1.794630 0.839290 
		CHANNELS 3 Zrotation Yrotation Xrotation
		JOINT RightLeg
		{
			OFFSET -2.542530 -6.985550 0.000000 
			CHANNELS 3 Zrotation Yrotation Xrotation
			JOINT RightFoot
			{
				OFFSET -2.568260 -7.056230 0.000000 
				CHANNELS 3 Zrotation Yrotation Xrotation
				JOINT RightToeBase
				{
					OFFSET -0.164730 -0.452590 2.363150 
					CHANNELS 3 Zrotation Yrotation Xrotation
					End Site
					{
						OFFSET 0.000000 0.000000 0.000000 
					}
				}
			}
		}
	}
	JOINT Spine
	{
		OFFSET 0.028270 2.035590 -0.193380 
		CHANNELS 3 Zrotation Yrotation Xrotation
		JOINT Spine1
		{
			OFFSET 0.056720 2.048850 -0.042750 
			CHANNELS 3 Zrotation Yrotation Xrotation
			JOINT Neck1
			{
				OFFSET -0.054170 1.746240 0.172020 
				CHANNELS 3 Zrotation Yrotation Xrotation
				JOINT Head
				{
					OFFSET 0.104070 1.761360 -0.123970 
					CHANNELS 3 Zrotation Yrotation Xrotation
					End Site
					{
						OFFSET 0.000000 0.000000 0.000000 
					}
				}
			}
			JOINT LeftArm
			{
				OFFSET 3.362410 1.200890 -0.311210 
				CHANNELS 3 Zrotation Yrotation Xrotation
				JOINT LeftForeArm
				{
					OFFSET 4.983000 -0.000000 -0.000000 
					CHANNELS 3 Zrotation Yrotation Xrotation
					JOINT LeftHand
					{
						OFFSET 3.483560 -0.000000 -0.000000 
						CHANNELS 3 Zrotation Yrotation Xrotation
						JOINT LeftHandIndex1
						{
							OFFSET 0.715260 -0.000000 -0.000000 
							CHANNELS 3 Zrotation Yrotation Xrotation
							End Site
							{
								OFFSET 0.000000 0.000000 0.000000 
							}
						}
					}
				}
			}
			JOINT RightArm
			{
				OFFSET -3.136600 1.374050 -0.404650 
				CHANNELS 3 Zrotation Yrotation Xrotation
				JOINT RightForeArm
				{
					OFFSET -5.241900 -0.000000 -0.000000 
					CHANNELS 3 Zrotation Yrotation Xrotation
					JOINT RightHand
					{
						OFFSET -3.444170 -0.000000 -0.000000 
						CHANNELS 3 Zrotation Yrotation Xrotation
						JOINT RightHandIndex1
						{
							OFFSET -0.622530 -0.000000 -0.000000 
							CHANNELS 3 Zrotation Yrotation Xrotation
							End Site
							{
								OFFSET 0.000000 0.000000 0.000000 
							}
						}
					}
				}
			}
		}
	}
}
MOTION
Frames: 10
Frame Time: 0.041667
-0.996793 17.674579 -49.267150 0.359307 -0.907600 20.489474 -16.352513 -3.600344 -39.021161 12.622186 19.833640 69.251417 -0.199059 1.007599 -0.287612 0.194400 -2.839700 -7.832800 20.453515 7.307912 -30.208325 -1.762198 -11.693921 31.766108 -1.645276 10.001159 -12.702223 -0.436000 4.237400 -11.745400 1.707924 0.152595 -9.846453 -0.302071 0.375490 0.855930 -0.283740 -1.062841 10.628669 -2.001400 -0.386800 3.206500 -100.990521 8.079939 24.578626 11.385458 -26.517854 -2.126070 -0.716765 -0.938782 12.421859 -7.125000 0.000000 0.000000 101.277419 -3.563184 13.992419 -13.454221 30.202334 -3.182629 -1.048534 -2.115656 -1.900281 7.125000 0.000000 0.000000 
-1.006179 17.673726 -49.071759 0.525582 -1.659234 20.196853 -16.604693 -3.165004 -40.085650 12.265584 19.738531 68.211115 -0.208214 1.220547 -0.925678 0.211100 -2.958100 -8.162100 20.324802 7.305152 -29.157709 -1.773491 -11.647966 31.742423 -1.724301 10.156699 -13.254413 -0.482400 4.454000 -12.357500 1.714956 0.255721 -10.172139 0.042023 0.466406 -0.369440 -0.201106 -0.858340 10.904155 -1.832100 -0.289600 3.272900 -101.257302 9.442046 23.238172 10.951145 -25.785450 -1.989573 -0.686150 -0.941276 12.703173 -7.125000 0.000000 0.000000 100.625871 -3.874090 16.810008 -14.607654 31.589133 -3.605576 -0.956214 -2.113659 -3.747040 7.125000 0.000000 0.000000 
-1.006179 17.680765 -48.840852 1.001275 -0.762218 19.858671 -16.823590 -4.081685 -40.316828 11.801735 19.615644 66.880614 -0.218086 1.448607 -1.517652 0.198200 -2.866700 -7.907800 20.201322 5.860202 -28.243899 -1.800446 -11.626937 31.782156 -1.838512 10.261991 -14.023886 -0.417000 4.145000 -11.484900 1.580279 -0.064113 -9.563806 -0.270818 0.240256 1.406029 -0.211197 -1.056929 10.598463 -1.989000 -0.382500 3.252800 -101.125255 8.157216 22.430988 10.099727 -24.544715 -1.719667 -0.676386 -0.958965 13.303475 -7.125000 0.000000 0.000000 101.093392 -2.091380 18.760558 -15.532788 32.928976 -3.959504 -0.889898 -2.296002 -5.744583 7.125000 0.000000 0.000000 
-1.002339 17.670633 -48.633516 0.770279 -1.261303 20.208036 -16.667218 -3.922741 -41.741453 11.373923 19.472503 65.600284 -0.227367 1.686333 -2.182953 0.208400 -2.939000 -8.108900 20.440498 5.499527 -28.058354 -1.831424 -11.616197 31.779678 -1.952989 11.366115 -14.263831 -0.283100 3.421800 -9.455500 1.464801 0.179045 -9.409557 -0.540649 0.349628 2.078642 -0.098564 -1.081405 10.337898 -1.901000 -0.393900 3.004400 -101.203665 7.790456 21.304676 9.326439 -23.303753 -1.456330 -0.709057 -0.980177 13.876451 -7.125000 0.000000 0.000000 100.925418 -1.386916 21.025783 -16.713722 34.445918 -4.466284 -0.809538 -2.328716 -7.528118 7.125000 0.000000 0.000000 
-1.008205 17.654315 -48.424046 0.733449 -1.268741 20.258262 -16.476007 -4.124194 -42.784068 10.884451 19.295733 64.119829 -0.304831 2.387402 -2.308149 0.153900 -2.527800 -6.966700 20.629544 5.071668 -27.538834 -1.850345 -11.589198 31.791326 -2.018838 11.600349 -14.633814 -0.219600 3.016400 -8.324500 1.513170 0.049948 -9.869808 -0.396724 0.312557 0.719127 0.075597 -0.828914 10.689781 -1.690800 -0.263000 3.046400 -101.321670 9.226387 20.028362 8.920114 -22.510132 -1.318783 -0.733869 -0.973961 14.337119 -7.125000 0.000000 0.000000 100.229039 -2.056785 22.880874 -17.992971 35.858795 -5.054163 -0.665279 -2.237112 -7.727769 7.125000 0.000000 0.000000 
-1.013218 17.639276 -48.210204 0.864987 -1.377631 20.247529 -16.500838 -4.303109 -43.655303 10.351284 19.092733 62.517742 -0.383090 3.083279 -2.542413 0.092900 -1.965400 -5.410000 20.626306 4.472797 -26.967810 -1.878407 -11.566491 31.824162 -2.098903 11.845453 -15.060119 -0.186400 2.780600 -7.668400 1.518617 0.005968 -10.130112 -0.300121 0.293927 -0.055496 0.032775 -0.736270 11.028112 -1.690200 -0.214400 3.232700 -100.960429 12.759252 20.444115 9.972818 -24.220876 -1.698143 -0.707129 -0.912684 13.610862 -7.125000 0.000000 0.000000 99.734089 -2.255244 24.769604 -19.342000 37.333822 -5.690686 -0.498702 -2.187088 -8.537421 7.125000 0.000000 0.000000 
-1.018231 17.623705 -47.995295 1.002874 -1.324712 20.157620 -16.501677 -4.634813 -44.251081 9.736161 18.834299 60.680904 -0.383080 3.217505 -3.151773 0.097700 -2.015300 -5.548000 20.650606 3.594471 -26.353874 -1.916642 -11.550109 31.862077 -2.225607 12.357685 -15.672664 -0.179100 2.725900 -7.516600 1.377703 0.108438 -10.034880 -0.444430 0.324950 0.118668 -0.183987 -0.929932 11.010408 -1.893400 -0.304400 3.297600 -101.071647 10.519746 18.772921 8.285254 -21.321426 -1.127181 -0.725166 -0.981850 15.453513 -7.125000 0.000000 0.000000 99.771124 -1.576977 26.292209 -20.562373 38.692780 -6.287811 -0.396248 -2.192465 -9.636640 7.125000 0.000000 0.000000 
-1.018551 17.595975 -47.811956 0.506781 -2.633401 20.834444 -16.089906 -4.089744 -45.967225 9.109626 18.528725 58.732441 -0.423775 3.668175 -3.848659 0.088100 -1.914000 -5.268100 20.949461 3.744495 -26.517936 -1.960758 -11.541406 31.850434 -2.332721 14.021159 -15.686152 -0.106200 2.101600 -5.786500 1.294110 0.712619 -10.230587 -0.506242 0.636933 -0.302656 -0.205258 -0.906964 10.786075 -1.890700 -0.296600 3.152100 -100.971682 11.196339 18.334631 8.027200 -20.793977 -1.026844 -0.735341 -1.003521 15.847009 -7.125000 0.000000 0.000000 99.645719 -0.547026 27.202139 -21.188294 39.355428 -6.604764 -0.314429 -2.188906 -10.609425 7.125000 0.000000 0.000000 
-1.014498 17.572937 -47.601100 0.472316 -2.666205 20.885913 -15.870855 -4.426433 -46.430686 8.359590 18.139632 56.413600 -0.503665 4.378537 -4.483898 0.101500 -2.054000 -5.654900 21.103395 2.926001 -26.017201 -1.965885 -11.468555 31.699337 -2.422989 14.779269 -15.946236 -0.058400 1.559200 -4.289000 1.302730 0.598166 -10.357201 -0.583168 0.583992 -0.633450 -0.067961 -0.681473 10.580827 -1.729800 -0.188400 2.903200 -101.087539 12.214895 17.154206 7.838046 -20.427716 -0.962064 -0.759105 -1.007299 16.578241 -7.125000 0.000000 0.000000 99.171064 -0.708719 29.223013 -21.487623 39.491731 -6.578670 -0.583832 -2.364417 -14.332235 7.125000 0.000000 0.000000 
-1.015991 17.548940 -47.395150 0.170033 -3.462675 21.343168 -15.595096 -3.991936 -47.354481 7.565166 17.673968 53.880267 -0.633897 5.312074 -4.791090 0.108400 -2.122500 -5.844300 21.341897 2.725492 -25.731450 -1.931644 -11.376298 31.410313 -2.488077 15.576405 -16.097333 -0.050500 1.450100 -3.988100 1.149251 0.974168 -9.758604 -0.814394 0.742548 1.415123 -0.049320 -0.692736 10.189838 -1.775100 -0.197600 2.771900 -101.119843 11.164055 16.091042 7.385842 -19.746586 -0.852706 -0.781886 -1.006339 17.977173 -7.125000 0.000000 0.000000 99.384434 1.369700 29.848045 -23.556051 41.834654 -7.823006 -0.215413 -2.239668 -12.383816 7.125000 0.000000 0.000000 
